{"title":"Scorpion S03E01E02 1080p WEB-DL HEVC DD5.1 x265","uid":15956294,"size":1391138393,"categoryP":"video","categoryS":"hd___tv_shows","magnet":"?xt=urn:btih:07ab573bd2a596f81bee291e7445a689f192dd3d&amp;dn=Scorpion+S03E01E02+1080p+WEB-DL+HEVC+DD5.1+x265&amp;tr=udp%3A%2F%2Ftracker.leechers-paradise.org%3A6969&amp;tr=udp%3A%2F%2Fzer0day.ch%3A1337&amp;tr=udp%3A%2F%2Fopen.demonii.com%3A1337&amp;tr=udp%3A%2F%2Ftracker.coppersurfer.tk%3A6969&amp;tr=udp%3A%2F%2Fexodus.desync.com%3A6969","seeders":4,"leechers":2,"uploader":"nayhtut","files":1,"time":1475621960,"description":"Source:Scorpion S03E01E02 1080p WEB-DL DD5.1 H264-DRACULA (3.14 GB)\r\n\r\n\r\nComplete name: Scorpion.S03E01E02.1080p.WEB-DL.HEVC.DD5.1.x265.mkv\r\nFormat                                   : Matroska\r\nFormat version                           : Version 4 / Version 2\r\nFile size                                : 1.30 GiB\r\nDuration                                 : 1 h 19 min\r\nOverall bit rate                         : 2 320 kb/s\r\nEncoded date                             : UTC 2016-10-04 19:25:48\r\nWriting library                          : libebml v1.3.4 + libmatroska v1.4.5\r\n\r\nVideo\r\n\r\nID                                       : 1\r\nFormat/Info                              : High Efficiency Video Coding\r\nFormat profile                           :   @Main\r\nCodec ID                                 : V_MPEGH/ISO/HEVC\r\nDuration                                 : 1 h 19 min\r\nBit rate                                 : 1 934 kb/s\r\nWidth                                    : 1 920 pixels\r\nHeight                                   : 1 080 pixels\r\nDisplay aspect ratio                     : 16:9\r\nFrame rate mode                          : Constant\r\nFrame rate                               : 23.976 (24000/1001) FPS\r\nColor space                              : YUV\r\nChroma subsampling                       : 4:2:0\r\nBit depth                                : 8 bits\r\nBits/(Pixel*Frame)                       : 0.039\r\nStream size                              : 1.08 GiB (83%)\r\nTitle: Scorpion.S03E01E02.1080p.WEB-DL.HEVC.DD5.1.x265\r\nWriting library: x265 2.1+4-e919ca9dd504:[Linux][GCC 5.4.0][64 bit] 8bit\r\nLanguage                                 : English\r\nDefault                                  : Yes\r\nForced                                   : No\r\n\r\nAudio\r\n\r\nFormat                                   : AC-3\r\nFormat/Info                              : Audio Coding 3\r\nMode extension                           : CM (complete main)\r\nFormat settings, Endianness              : Big\r\nCodec ID                                 : A_AC3\r\nDuration                                 : 1 h 19 min\r\nBit rate mode                            : Constant\r\nBit rate                                 : 384 kb/s\r\nChannel(s)                               : 6 channels\r\nChannel positions                        : Front: L C R, Side: L R, LFE\r\nSampling rate                            : 48.0 kHz\r\nFrame rate                               : 31.250 FPS (1536 spf)\r\nCompression mode                         : Lossy\r\nStream size                              : 220 MiB (17%)\r\nTitle                                    : AC-3 5.1\r\nLanguage                                 : English\r\nDefault                                  : Yes\r\nForced                                   : No\r\n\r\nText\r\n\r\nID                                       : 3\r\nCodec ID                                 : S_TEXT/ASS\r\nDuration                                 : 1 h 19 min\r\nBit rate                                 : 183 b/s\r\nCount of elements                        : 2006\r\nTitle                                    : English\r\nLanguage                                 : English","torrent":{"xt":"urn:btih:07ab573bd2a596f81bee291e7445a689f192dd3d","amp;dn":"Scorpion+S03E01E02+1080p+WEB-DL+HEVC+DD5.1+x265","amp;tr":["udp%3A%2F%2Ftracker.leechers-paradise.org%3A6969","udp%3A%2F%2Fzer0day.ch%3A1337","udp%3A%2F%2Fopen.demonii.com%3A1337","udp%3A%2F%2Ftracker.coppersurfer.tk%3A6969","udp%3A%2F%2Fexodus.desync.com%3A6969"],"infoHash":"07ab573bd2a596f81bee291e7445a689f192dd3d","infoHashBuffer":{"type":"Buffer","data":[7,171,87,59,210,165,150,248,27,238,41,30,116,69,166,137,241,146,221,61]},"announce":[],"urlList":[]}}